# xmcd
#
# Track frame offsets:
#	150
#	22754
#	45877
#	70009
#	91935
#	115425
#	130239
#	158964
#	174947
#	195521
#	217845
#
# Disc length: 3227 seconds
#
# Revision: 1
# Processed by: cddbd v1.4PL0 Copyright (c) Steve Scherf et al.
# Submitted via: audiograbber 1.81.01
#
DISCID=800c990b
DTITLE=Blues Company - from daybreak to heartbreak
DYEAR=2003
DGENRE=Blues
TTITLE0=The River
TTITLE1=Listen to what I say
TTITLE2=Over the city
TTITLE3=Wait a minute
TTITLE4=Over
TTITLE5=Get in the groove
TTITLE6=Blues is a feeling
TTITLE7=21st Century Blues
TTITLE8=Keepin' the blues alive
TTITLE9=Commercials
TTITLE10=Blues for Mick
EXTD=INAK 9071 SACD
EXTT0=
EXTT1=
EXTT2=
EXTT3=
EXTT4=
EXTT5=
EXTT6=
EXTT7=
EXTT8=
EXTT9=
EXTT10=
PLAYORDER=
